<svg version="1.1" id="Layer_1" xmlns="http://www.w3.org/2000/svg" xmlns:xlink="http://www.w3.org/1999/xlink" x="0px" y="0px"
	 viewBox="0 0 512.001 512.001" style="enable-background:new 0 0 512.001 512.001;" xml:space="preserve">
<path style="fill:#2BA5F7;" d="M341.615,328.8l1.877-1.877c9.185-9.185,24.081-9.185,33.265,0c9.185,9.185,9.185,24.081,0,33.265
	l-13.754,13.754l-39.793,39.793c-8.311,8.299-12.973,19.57-12.973,31.331v55.202c54.677-12.227,102.5-42.567,136.873-84.399
	c33.452-40.69,54.164-92.278,56.006-148.634c0.093-2.727,0.14-5.478,0.14-8.241c0-16.458-1.608-32.543-4.686-48.092
	c-8.952-45.492-30.398-86.497-60.598-119.308c-21.272-23.113-46.879-42.159-75.541-55.843
	C330.204,20.343,294.107,11.73,256.004,11.73s-74.2,8.614-106.428,24.022c-19.675,9.383-37.916,21.307-54.292,35.34
	c-36.657,31.377-64.025,73.291-77.394,121.056c-5.968,21.26-9.15,43.686-9.15,66.846c0,16.528,1.62,32.683,4.721,48.313
	c9.686,48.896,33.79,92.605,67.696,126.511c32.543,32.531,74.107,56.041,120.613,66.449v-55.202
	c0-11.761-4.674-23.032-12.984-31.331l-39.863-39.863l-13.684-13.684c-9.185-9.185-9.185-24.081,0-33.265
	c0.804-0.804,1.655-1.55,2.553-2.203c4.161-3.124,9.126-4.686,14.08-4.686c6.014,0,12.04,2.296,16.633,6.889l51.39,51.378
	c-2.996-5.665-4.686-12.122-4.686-18.976c0-22.531,18.265-40.795,40.795-40.795s40.795,18.265,40.795,40.795
	c0,6.854-1.702,13.311-4.686,18.976l49.502-49.49V328.8z"/>
<path style="fill:#9AD14B;" d="M102.859,252.817c-9.266,30.34,17.181,45.586,34.932,71.904c-0.897,0.653-1.748,1.399-2.553,2.203
	c-9.185,9.185-9.185,24.081,0,33.265l13.684,13.684c-5.595,29.594-31.377,56.297-67.766,59.945
	C47.25,399.912,23.146,356.203,13.46,307.307h0.023c11.854-7.215,28.102-18.976,43.872-36.401
	c22.274-24.617-14.302-39.956-39.455-78.758h-0.012c13.369-47.765,40.737-89.679,77.394-121.056
	c17.728,2.075,34.967,7.973,50.388,17.717c10.817,6.842,21.528,16.038,29.967,28.335c6.108,8.858,11.003,19.314,13.952,31.657
	c10.945,45.924-26.75,62.032-56.099,77.557C118.828,234.109,106.251,241.721,102.859,252.817z"/>
<g>
	<path style="fill:#2197D8;" d="M314.329,499.312c-1.352,0.338-2.727,0.653-4.091,0.956v-2.11
		C311.602,498.555,312.954,498.939,314.329,499.312z"/>
	<path style="fill:#2197D8;" d="M131.369,258.983c0,22.274,2.926,43.861,8.404,64.41c-0.676,0.396-1.34,0.851-1.981,1.329
		c-0.897,0.653-1.748,1.399-2.553,2.203c-9.185,9.185-9.185,24.081,0,33.265l39.886,39.886c7.203,10.49,15.199,20.386,23.883,29.617
		c1.818,4.872,2.762,10.082,2.762,15.374v55.202c-46.506-10.409-88.071-33.918-120.613-66.449
		C47.25,399.912,23.146,356.203,13.46,307.307c-3.1-15.63-4.721-31.785-4.721-48.313c0-23.16,3.182-45.586,9.15-66.846
		c13.369-47.765,40.737-89.679,77.394-121.056c16.376-14.033,34.618-25.957,54.292-35.34
		c32.228-15.409,68.326-24.022,106.428-24.022c20.083,0,39.618,2.389,58.314,6.924C208.845,47.688,131.369,144.29,131.369,258.983z"
		/>
</g>
<path style="fill:#E6E6E6;" d="M362.433,35.752c-32.228,15.397-68.326,24.011-106.428,24.011s-74.2-8.614-106.428-24.011
	c32.228-15.409,68.326-24.022,106.428-24.022S330.204,20.343,362.433,35.752z"/>
<path style="fill:#9AD14B;" d="M498.571,210.903c-15.724,4.919-31.097,13.322-34.431,27.601
	c-5.548,23.813,24.419,28.055,38.977,28.731c-1.842,56.355-22.554,107.944-56.006,148.634
	c-14.465-3.881-57.498-17.006-84.108-41.926l13.754-13.754c9.185-9.185,9.185-24.081,0-33.265s-24.081-9.185-33.265,0l-1.877,1.877
	c5.502-43.662,105.135-49.012,94.68-95.612c-11.318-50.434-154.438,34.664-150.615-36.809
	c3.508-65.715,131.605-99.715,152.294-104.785C468.173,124.406,489.62,165.41,498.571,210.903z"/>
<path style="fill:#90BC42;" d="M135.239,360.189l13.684,13.684c-5.595,29.594-31.377,56.297-67.766,59.945
	C47.25,399.912,23.146,356.203,13.46,307.307h0.023c11.854-7.215,28.102-18.976,43.872-36.401
	c22.274-24.617-14.302-39.956-39.455-78.758h-0.012c13.369-47.765,40.737-89.679,77.394-121.056
	c17.728,2.075,34.967,7.973,50.388,17.717c10.817,6.842,21.528,16.038,29.967,28.335c-22.053,31.808-36.89,69.002-42.147,109.214
	c-14.663,7.751-27.239,15.362-30.631,26.459c-9.266,30.34,17.181,45.586,34.932,71.904c-0.897,0.653-1.748,1.399-2.553,2.203
	C126.054,336.109,126.054,351.005,135.239,360.189z"/>
<path style="fill:#333333;" d="M437.019,77.973C388.667,29.62,324.38,2.991,255.999,2.991S123.333,29.62,74.981,77.973
	C26.629,126.324,0,190.611,0,258.991c0,58.516,20.256,115.727,57.04,161.094c36.248,44.708,86.969,76.213,142.82,88.713
	c2.591,0.579,5.302-0.049,7.375-1.708c2.071-1.659,3.278-4.169,3.278-6.823v-55.204c0-14.17-5.518-27.492-15.539-37.513
	l-53.546-53.546c-5.761-5.763-5.761-15.137,0-20.9c2.792-2.792,6.503-4.328,10.449-4.328s7.658,1.537,10.449,4.328l51.385,51.385
	c3.057,3.057,7.889,3.42,11.368,0.856c3.479-2.564,4.563-7.287,2.548-11.111c-2.441-4.633-3.679-9.649-3.679-14.907
	c0-17.675,14.379-32.053,32.053-32.053s32.053,14.379,32.053,32.053c0,5.258-1.238,10.272-3.679,14.907
	c-2.015,3.824-0.931,8.547,2.548,11.111c3.48,2.564,8.311,2.202,11.368-0.856l51.385-51.385c5.761-5.761,15.137-5.761,20.9,0
	c5.761,5.763,5.761,15.137,0,20.9L317.03,407.55c-10.02,10.02-15.539,23.343-15.539,37.513v55.205c0,2.654,1.205,5.165,3.278,6.823
	c1.565,1.254,3.497,1.919,5.464,1.919c0.636,0,1.276-0.07,1.909-0.211c55.851-12.5,106.572-44.005,142.82-88.713
	c36.782-45.366,57.04-102.579,57.04-161.094C512,190.611,485.371,126.324,437.019,77.973z M494.5,257.668
	c-10.139-1.444-17.611-4.444-20.66-8.474c-1.056-1.395-2.329-3.816-1.19-8.7c1.894-8.111,10.221-13.847,19.117-17.754
	C493.512,234.138,494.435,245.804,494.5,257.668z M340.089,35.795c-26.759,10.111-54.958,15.228-84.088,15.228
	s-57.33-5.117-84.088-15.228c26.165-9.89,54.502-15.32,84.088-15.32C285.586,20.475,313.924,25.905,340.089,35.795z M17.484,258.991
	c0-15.894,1.577-31.425,4.556-46.457c5.3,6.471,10.632,12.202,15.586,17.52c18.754,20.133,21.956,25.362,13.244,34.989
	c-10.759,11.889-21.726,20.96-30.979,27.558C18.304,281.507,17.484,270.276,17.484,258.991z M193.026,445.063v44.026
	c-34.475-9.438-66.524-26.699-93.516-50.144c24.436-7.637,44.27-25.576,53.59-48.541l29.51,29.51
	C189.326,426.63,193.026,435.562,193.026,445.063z M139.319,376.622c-6.59,24.721-28.328,43.718-54.95,47.957
	c-4.793-4.958-9.386-10.125-13.749-15.504c-23.133-28.532-39.237-62.097-47.267-97.669c11.238-7.357,26.039-18.674,40.482-34.632
	c20.302-22.438,3.161-40.842-13.415-58.638c-7.358-7.899-15.595-16.775-22.956-27.441c12.927-43.181,37.781-81.253,70.725-110.384
	c15.405,2.332,29.791,7.664,42.807,15.889c21.15,13.371,34.639,31.751,40.086,54.629c8.062,33.83-12.952,47.618-45.933,64.79
	c-18.39,9.576-35.761,18.621-40.654,34.645c-8.151,26.687,6.732,43.925,21.127,60.595c3.599,4.168,7.281,8.443,10.737,12.965
	c-9.79,12.644-8.894,30.944,2.703,42.542L139.319,376.622z M256.001,309.79c-25.147,0-45.978,18.834-49.125,43.139l-32.188-32.187
	c-6.094-6.094-14.196-9.449-22.813-9.449c-3.987,0-7.861,0.727-11.48,2.103c-3.781-4.964-7.706-9.52-11.539-13.961
	c-14.671-16.991-22.724-27.414-17.639-44.061c2.752-9.011,16.963-16.411,32.008-24.245c28.145-14.655,66.692-34.726,54.866-84.35
	c-6.542-27.471-22.609-49.46-47.754-65.356c-10.775-6.808-22.351-11.896-34.576-15.235c10.703-7.807,22.077-14.744,34.021-20.71
	c33.399,15.27,69.107,23.031,106.219,23.031s72.819-7.76,106.219-23.032c21.724,10.851,41.574,24.914,58.915,41.575
	c-17.03,4.878-43.884,13.619-69.632,26.363c-47.812,23.666-72.896,51.424-74.555,82.502c-0.695,12.986,2.79,22.992,10.356,29.742
	c16.4,14.627,46.218,9.583,77.787,4.244c16.17-2.736,32.892-5.563,45.155-4.839c15.467,0.913,16.852,7.081,17.516,10.044
	c3.79,16.898-13.056,26.954-41.252,41.506c-23.729,12.248-48.216,24.901-53.031,47.964l-28.353,28.351
	C301.979,328.623,281.148,309.79,256.001,309.79z M318.974,489.089v-44.026c0-9.501,3.7-18.432,10.418-25.151l34.029-34.029
	c21.461,17.383,49.379,28.46,68.166,34.508C401.236,453.349,361.994,477.312,318.974,489.089z M443.91,405.884
	c-14.993-4.42-45.69-14.957-68.047-32.443l7.076-7.076c12.579-12.579,12.579-33.046,0-45.625c-5.552-5.552-12.772-8.822-20.53-9.361
	c8.537-7.06,20.441-13.204,32.12-19.232c26.864-13.866,57.314-29.581,50.292-60.871c-3.273-14.585-14.559-22.548-33.545-23.669
	c-14.253-0.84-31.967,2.156-49.101,5.054c-24.892,4.21-53.105,8.983-63.232-0.052c-1.269-1.133-5.134-4.58-4.536-15.761
	c1.617-30.278,36.16-53.564,64.852-67.766c29.784-14.742,61.225-23.901,75.62-27.679c25.732,29.174,44.469,64.659,53.525,103.814
	c-18.597,7.267-29.622,17.77-32.781,31.305c-2.588,11.103,0.896,18.756,4.274,23.221c7.452,9.849,21.368,13.932,34.052,15.493
	C490.689,322.667,473.232,368.409,443.91,405.884z"/>
<path style="fill:#FFFFFF;" d="M473.482,251.11c-4.529,0-8.362-3.494-8.708-8.084c-0.629-8.339-1.761-16.672-3.364-24.768
	c-7.411-37.665-25.153-72.591-51.31-101.009c-18.26-19.839-39.788-35.757-63.99-47.312c-13.038-6.23-26.722-11.094-40.674-14.458
	c-6.919-1.677-14.018-3.013-21.112-3.971c-4.785-0.646-8.139-5.049-7.493-9.833s5.043-8.142,9.833-7.493
	c7.69,1.039,15.389,2.486,22.881,4.303c15.124,3.646,29.965,8.921,44.099,15.675c26.221,12.518,49.544,29.762,69.319,51.248
	c28.341,30.791,47.567,68.643,55.598,109.464c1.736,8.77,2.963,17.803,3.645,26.837c0.364,4.814-3.245,9.011-8.059,9.375
	C473.925,251.102,473.703,251.11,473.482,251.11z M256.016,49.611c-4.829,0-8.748-3.914-8.748-8.742s3.908-8.742,8.736-8.742h0.012
	c4.828,0,8.742,3.914,8.742,8.742S260.844,49.611,256.016,49.611z"/>
<g>
</g>
<g>
</g>
<g>
</g>
<g>
</g>
<g>
</g>
<g>
</g>
<g>
</g>
<g>
</g>
<g>
</g>
<g>
</g>
<g>
</g>
<g>
</g>
<g>
</g>
<g>
</g>
<g>
</g>
</svg>
