<svg version="1.1" id="Layer_1" xmlns="http://www.w3.org/2000/svg" xmlns:xlink="http://www.w3.org/1999/xlink" x="0px" y="0px"
	 viewBox="0 0 512 512" style="enable-background:new 0 0 512 512;" xml:space="preserve">
<path style="fill:#2BA5F7;" d="M344.644,331.375l1.943-1.943c9.509-9.509,24.932-9.509,34.441,0c9.509,9.509,9.509,24.932,0,34.441
	l-14.24,14.24l-41.199,41.199c-8.604,8.592-13.431,20.262-13.431,32.438v57.153c56.61-12.659,106.124-44.072,141.712-87.383
	c34.635-42.129,56.079-95.541,57.986-153.888c0.097-2.824,0.145-5.672,0.145-8.532c0-17.04-1.665-33.693-4.851-49.792
	c-9.268-47.101-31.473-89.555-62.74-123.526c-22.024-23.93-48.537-43.649-78.211-57.817C332.83,12.013,295.456,3.095,256.006,3.095
	s-76.824,8.918-110.191,24.872c-20.37,9.715-39.257,22.06-56.212,36.59C51.65,97.043,23.315,140.439,9.473,189.893
	C3.295,211.904,0,235.123,0,259.101c0,17.112,1.677,33.838,4.887,50.021c10.028,50.624,34.985,95.879,70.09,130.984
	c33.693,33.681,76.727,58.022,124.877,68.798v-57.153c0-12.176-4.839-23.846-13.444-32.438l-41.272-41.272l-14.168-14.168
	c-9.509-9.509-9.509-24.932,0-34.441c0.833-0.833,1.714-1.605,2.643-2.281c4.308-3.234,9.449-4.851,14.578-4.851
	c6.227,0,12.466,2.377,17.221,7.132l53.207,53.195c-3.101-5.865-4.851-12.55-4.851-19.646c0-23.327,18.91-42.237,42.237-42.237
	s42.237,18.91,42.237,42.237c0,7.096-1.762,13.781-4.851,19.646l51.252-51.24V331.375z"/>
<path style="fill:#2197D8;" d="M126.965,259.089c0,23.062,3.029,45.411,8.701,66.687c-0.7,0.41-1.388,0.881-2.052,1.376
	c-0.929,0.676-1.81,1.448-2.643,2.281c-9.509,9.509-9.509,24.932,0,34.441l41.296,41.296c7.458,10.861,15.736,21.107,24.727,30.664
	c1.883,5.044,2.86,10.439,2.86,15.917v57.153c-48.15-10.777-91.184-35.117-124.877-68.798
	c-35.105-35.105-60.061-80.359-70.09-130.984C1.677,292.939,0,276.213,0,259.101c0-23.979,3.295-47.197,9.473-69.209
	c13.842-49.454,42.177-92.85,80.13-125.336c16.955-14.53,35.841-26.875,56.212-36.59c33.367-15.954,70.741-24.872,110.191-24.872
	c20.793,0,41.018,2.474,60.375,7.168C207.18,40.324,126.965,140.342,126.965,259.089z"/>
<path style="fill:#E6E6E6;" d="M366.197,27.967c-33.367,15.942-70.741,24.86-110.191,24.86s-76.824-8.918-110.191-24.86
	c33.367-15.954,70.741-24.872,110.191-24.872S332.83,12.013,366.197,27.967z"/>
<g>
	<path style="fill:#9AD14B;" d="M507.149,209.31c-16.279,5.093-32.197,13.793-35.648,28.577
		c-5.744,24.654,25.282,29.047,40.355,29.747c-1.907,58.348-23.351,111.76-57.986,153.888c-14.976-4.019-59.53-17.607-87.081-43.408
		l14.24-14.24c9.509-9.509,9.509-24.932,0-34.441s-24.932-9.509-34.441,0l-1.943,1.943c5.696-45.206,108.851-50.745,98.027-98.992
		c-11.718-52.217-159.898,35.89-155.94-38.11c3.632-68.038,136.257-103.24,157.678-108.489
		C475.676,119.755,497.881,162.209,507.149,209.31z"/>
	<path style="fill:#9AD14B;" d="M129.162,225.312c30.387-16.074,69.414-32.752,58.082-80.299
		c-3.053-12.78-8.122-23.605-14.445-32.776c-8.737-12.732-19.827-22.253-31.026-29.337c-15.966-10.089-33.814-16.195-52.169-18.343
		C51.65,97.043,23.315,140.439,9.473,189.893h0.012c26.042,40.174,63.911,56.055,40.849,81.542
		c-16.328,18.041-33.15,30.218-45.423,37.688H4.887c10.028,50.624,34.985,95.879,70.09,130.984
		c37.676-3.777,64.37-31.424,70.162-62.065l-14.168-14.168c-9.509-9.509-9.509-24.932,0-34.441c0.833-0.833,1.714-1.605,2.643-2.281
		c-18.379-27.249-45.761-43.034-36.167-74.446C100.959,241.217,113.98,233.337,129.162,225.312z"/>
</g>
<path style="fill:#2197D8;" d="M316.393,507.915c-1.4,0.35-2.824,0.676-4.236,0.99v-2.184
	C313.569,507.131,314.969,507.529,316.393,507.915z"/>
<path style="fill:#90BC42;" d="M130.972,363.874l14.168,14.168c-5.793,30.64-32.486,58.287-70.162,62.065
	c-35.105-35.105-60.061-80.359-70.09-130.984h0.024c12.273-7.47,29.095-19.646,45.423-37.688
	c23.062-25.487-14.807-41.368-40.849-81.542H9.473c13.842-49.454,42.177-92.85,80.13-125.336
	c18.355,2.148,36.203,8.254,52.169,18.343c11.199,7.084,22.289,16.605,31.026,29.337c-22.832,32.933-38.195,71.441-43.637,113.075
	c-15.181,8.025-28.202,15.905-31.714,27.394c-9.594,31.412,17.788,47.197,36.167,74.446c-0.929,0.676-1.81,1.448-2.643,2.281
	C121.462,338.942,121.462,354.364,130.972,363.874z"/>
    <g>
</g>
<g>
</g>
<g>
</g>
<g>
</g>
<g>
</g>
<g>
</g>
<g>
</g>
<g>
</g>
<g>
</g>
<g>
</g>
<g>
</g>
<g>
</g>
<g>
</g>
<g>
</g>
<g>
</g>
</svg>
